name Walk9.mot
datacolumns 19
datarows 20
range 2.47100000 2.49000000
endheader

                time	   L_ground_force_vx	   L_ground_force_vy	   L_ground_force_vz	   L_ground_force_px	   L_ground_force_py	   L_ground_force_pz	   R_ground_force_vx	   R_ground_force_vy	   R_ground_force_vz	   R_ground_force_px	   R_ground_force_py	   R_ground_force_pz	   L_ground_torque_x	   L_ground_torque_y	   L_ground_torque_z	   R_ground_torque_x	   R_ground_torque_y	   R_ground_torque_z	
          2.47100000	          0.00000000	          0.00000000	          0.00000000	          0.00000000	          0.00000000	          0.00000000	         21.07839311	        664.81160734	         33.99816083	         -0.38317460	          0.00000000	         -0.06788879	          0.00000000	          0.00000000	          0.00000000	          0.00000000	          0.77258270	          0.00000000	
          2.47200000	          0.00000000	          0.00000000	          0.00000000	          0.00000000	          0.00000000	          0.00000000	         21.37279658	        665.80811739	         34.12228706	         -0.38276516	          0.00000000	         -0.06798090	          0.00000000	          0.00000000	          0.00000000	          0.00000000	          0.75981543	          0.00000000	
          2.47300000	          0.00000000	          0.00000000	          0.00000000	          0.00000000	          0.00000000	          0.00000000	         21.68470138	        666.81154651	         34.22479982	         -0.38235285	          0.00000000	         -0.06804761	          0.00000000	          0.00000000	          0.00000000	          0.00000000	          0.74830940	          0.00000000	
          2.47400000	          0.00000000	          0.00000000	          0.00000000	          0.00000000	          0.00000000	          0.00000000	         22.01148147	        667.90095752	         34.30512223	         -0.38192479	          0.00000000	         -0.06809183	          0.00000000	          0.00000000	          0.00000000	          0.00000000	          0.74057925	          0.00000000	
          2.47500000	          0.00000000	          0.00000000	          0.00000000	          0.00000000	          0.00000000	          0.00000000	         22.34053667	        669.13738767	         34.38102684	         -0.38147918	          0.00000000	         -0.06812707	          0.00000000	          0.00000000	          0.00000000	          0.00000000	          0.73940348	          0.00000000	
          2.47600000	          0.00000000	          0.00000000	          0.00000000	          0.00000000	          0.00000000	          0.00000000	         22.65669430	        670.47613891	         34.47828471	         -0.38103455	          0.00000000	         -0.06815629	          0.00000000	          0.00000000	          0.00000000	          0.00000000	          0.74601317	          0.00000000	
          2.47700000	          0.00000000	          0.00000000	          0.00000000	          0.00000000	          0.00000000	          0.00000000	         22.95396982	        671.78359656	         34.61321203	         -0.38062007	          0.00000000	         -0.06817312	          0.00000000	          0.00000000	          0.00000000	          0.00000000	          0.75656780	          0.00000000	
          2.47800000	          0.00000000	          0.00000000	          0.00000000	          0.00000000	          0.00000000	          0.00000000	         23.23791157	        672.96846271	         34.78170342	         -0.38024694	          0.00000000	         -0.06817317	          0.00000000	          0.00000000	          0.00000000	          0.00000000	          0.76212630	          0.00000000	
          2.47900000	          0.00000000	          0.00000000	          0.00000000	          0.00000000	          0.00000000	          0.00000000	         23.51983146	        674.06248829	         34.96136324	         -0.37989392	          0.00000000	         -0.06816065	          0.00000000	          0.00000000	          0.00000000	          0.00000000	          0.75524847	          0.00000000	
          2.48000000	          0.00000000	          0.00000000	          0.00000000	          0.00000000	          0.00000000	          0.00000000	         23.80925216	        675.15423881	         35.12233717	         -0.37952915	          0.00000000	         -0.06815013	          0.00000000	          0.00000000	          0.00000000	          0.00000000	          0.73784553	          0.00000000	
          2.48100000	          0.00000000	          0.00000000	          0.00000000	          0.00000000	          0.00000000	          0.00000000	         24.10822880	        676.29378436	         35.24445627	         -0.37913989	          0.00000000	         -0.06815986	          0.00000000	          0.00000000	          0.00000000	          0.00000000	          0.72076168	          0.00000000	
          2.48200000	          0.00000000	          0.00000000	          0.00000000	          0.00000000	          0.00000000	          0.00000000	         24.41225984	        677.47439232	         35.32964638	         -0.37873753	          0.00000000	         -0.06819168	          0.00000000	          0.00000000	          0.00000000	          0.00000000	          0.71321422	          0.00000000	
          2.48300000	          0.00000000	          0.00000000	          0.00000000	          0.00000000	          0.00000000	          0.00000000	         24.71734461	        678.67093306	         35.39591875	         -0.37834098	          0.00000000	         -0.06822709	          0.00000000	          0.00000000	          0.00000000	          0.00000000	          0.71544223	          0.00000000	
          2.48400000	          0.00000000	          0.00000000	          0.00000000	          0.00000000	          0.00000000	          0.00000000	         25.02610501	        679.88137707	         35.46299991	         -0.37795917	          0.00000000	         -0.06825901	          0.00000000	          0.00000000	          0.00000000	          0.00000000	          0.72269960	          0.00000000	
          2.48500000	          0.00000000	          0.00000000	          0.00000000	          0.00000000	          0.00000000	          0.00000000	         25.34679058	        681.11551188	         35.54428645	         -0.37758641	          0.00000000	         -0.06830800	          0.00000000	          0.00000000	          0.00000000	          0.00000000	          0.73149344	          0.00000000	
          2.48600000	          0.00000000	          0.00000000	          0.00000000	          0.00000000	          0.00000000	          0.00000000	         25.68615216	        682.35140909	         35.64549444	         -0.37721357	          0.00000000	         -0.06839927	          0.00000000	          0.00000000	          0.00000000	          0.00000000	          0.74059293	          0.00000000	
          2.48700000	          0.00000000	          0.00000000	          0.00000000	          0.00000000	          0.00000000	          0.00000000	         26.04397145	        683.55151522	         35.76731162	         -0.37683984	          0.00000000	         -0.06853873	          0.00000000	          0.00000000	          0.00000000	          0.00000000	          0.74786933	          0.00000000	
          2.48800000	          0.00000000	          0.00000000	          0.00000000	          0.00000000	          0.00000000	          0.00000000	         26.41579179	        684.71379699	         35.90632517	         -0.37646748	          0.00000000	         -0.06870865	          0.00000000	          0.00000000	          0.00000000	          0.00000000	          0.74833432	          0.00000000	
          2.48900000	          0.00000000	          0.00000000	          0.00000000	          0.00000000	          0.00000000	          0.00000000	         26.79820757	        685.86854685	         36.05222783	         -0.37609167	          0.00000000	         -0.06888170	          0.00000000	          0.00000000	          0.00000000	          0.00000000	          0.73819218	          0.00000000	
          2.49000000	          0.00000000	          0.00000000	          0.00000000	          0.00000000	          0.00000000	          0.00000000	         27.18932495	        687.04937580	         36.19201772	         -0.37570253	          0.00000000	         -0.06903637	          0.00000000	          0.00000000	          0.00000000	          0.00000000	          0.72006093	          0.00000000	
